<mxfile host="app.diagrams.net" modified="2023-03-22T16:25:58.220Z" agent="5.0 (Windows NT 10.0; Win64; x64) AppleWebKit/537.36 (KHTML, like Gecko) Chrome/111.0.0.0 Safari/537.36" etag="f-1jh_N8Np833GqcGnH7" version="21.0.10" type="github">
  <diagram name="Page-1" id="ovaMx1BlKtIJrgPWmryp">
    <mxGraphModel dx="1098" dy="690" grid="1" gridSize="10" guides="1" tooltips="1" connect="1" arrows="1" fold="1" page="1" pageScale="1" pageWidth="1700" pageHeight="1100" background="none" math="0" shadow="0">
      <root>
        <mxCell id="0" />
        <mxCell id="1" parent="0" />
        <mxCell id="cWptr_9K2KnEI4ltxLWX-1" value="USER" style="rounded=0;whiteSpace=wrap;html=1;fillColor=#f8cecc;strokeColor=#b85450;" vertex="1" parent="1">
          <mxGeometry x="740" y="540" width="120" height="60" as="geometry" />
        </mxCell>
        <mxCell id="cWptr_9K2KnEI4ltxLWX-2" value="" style="endArrow=none;html=1;rounded=0;" edge="1" parent="1" target="cWptr_9K2KnEI4ltxLWX-3">
          <mxGeometry width="50" height="50" relative="1" as="geometry">
            <mxPoint x="800" y="540" as="sourcePoint" />
            <mxPoint x="800" y="470" as="targetPoint" />
          </mxGeometry>
        </mxCell>
        <mxCell id="cWptr_9K2KnEI4ltxLWX-3" value="NAME" style="ellipse;whiteSpace=wrap;html=1;" vertex="1" parent="1">
          <mxGeometry x="740" y="390" width="120" height="40" as="geometry" />
        </mxCell>
        <mxCell id="cWptr_9K2KnEI4ltxLWX-4" value="" style="endArrow=none;html=1;rounded=0;exitX=0.5;exitY=0;exitDx=0;exitDy=0;" edge="1" parent="1" target="cWptr_9K2KnEI4ltxLWX-5" source="cWptr_9K2KnEI4ltxLWX-1">
          <mxGeometry width="50" height="50" relative="1" as="geometry">
            <mxPoint x="630" y="590" as="sourcePoint" />
            <mxPoint x="630" y="520" as="targetPoint" />
          </mxGeometry>
        </mxCell>
        <mxCell id="cWptr_9K2KnEI4ltxLWX-5" value="HANDLE" style="ellipse;whiteSpace=wrap;html=1;" vertex="1" parent="1">
          <mxGeometry x="610" y="390" width="120" height="40" as="geometry" />
        </mxCell>
        <mxCell id="cWptr_9K2KnEI4ltxLWX-6" value="" style="endArrow=none;html=1;rounded=0;" edge="1" parent="1" target="cWptr_9K2KnEI4ltxLWX-7">
          <mxGeometry width="50" height="50" relative="1" as="geometry">
            <mxPoint x="800" y="540" as="sourcePoint" />
            <mxPoint x="940" y="470" as="targetPoint" />
          </mxGeometry>
        </mxCell>
        <mxCell id="cWptr_9K2KnEI4ltxLWX-7" value="DISPLAY_NAME" style="ellipse;whiteSpace=wrap;html=1;" vertex="1" parent="1">
          <mxGeometry x="870" y="390" width="120" height="40" as="geometry" />
        </mxCell>
        <mxCell id="cWptr_9K2KnEI4ltxLWX-8" value="" style="endArrow=none;html=1;rounded=0;exitX=1;exitY=0.5;exitDx=0;exitDy=0;" edge="1" parent="1" source="cWptr_9K2KnEI4ltxLWX-1">
          <mxGeometry width="50" height="50" relative="1" as="geometry">
            <mxPoint x="990" y="650" as="sourcePoint" />
            <mxPoint x="970" y="570" as="targetPoint" />
          </mxGeometry>
        </mxCell>
        <mxCell id="cWptr_9K2KnEI4ltxLWX-9" value="ORGANISATION" style="rounded=0;whiteSpace=wrap;html=1;" vertex="1" parent="1">
          <mxGeometry x="1190" y="540" width="120" height="60" as="geometry" />
        </mxCell>
        <mxCell id="cWptr_9K2KnEI4ltxLWX-10" value="Create" style="rhombus;whiteSpace=wrap;html=1;" vertex="1" parent="1">
          <mxGeometry x="970" y="530" width="80" height="80" as="geometry" />
        </mxCell>
        <mxCell id="cWptr_9K2KnEI4ltxLWX-12" value="1" style="text;html=1;strokeColor=none;fillColor=none;align=center;verticalAlign=middle;whiteSpace=wrap;rounded=0;" vertex="1" parent="1">
          <mxGeometry x="890" y="540" width="60" height="30" as="geometry" />
        </mxCell>
        <mxCell id="cWptr_9K2KnEI4ltxLWX-13" value="" style="shape=filledEdge;curved=0;rounded=0;fixDash=1;endArrow=none;strokeWidth=10;fillColor=#ffffff;edgeStyle=orthogonalEdgeStyle;html=1;" edge="1" parent="1">
          <mxGeometry width="60" height="40" relative="1" as="geometry">
            <mxPoint x="1050" y="570" as="sourcePoint" />
            <mxPoint x="1190" y="570" as="targetPoint" />
            <Array as="points">
              <mxPoint x="1140" y="570" />
              <mxPoint x="1140" y="570" />
            </Array>
          </mxGeometry>
        </mxCell>
        <mxCell id="cWptr_9K2KnEI4ltxLWX-14" value="N" style="text;html=1;strokeColor=none;fillColor=none;align=center;verticalAlign=middle;whiteSpace=wrap;rounded=0;" vertex="1" parent="1">
          <mxGeometry x="1090" y="540" width="60" height="30" as="geometry" />
        </mxCell>
        <mxCell id="cWptr_9K2KnEI4ltxLWX-15" value="" style="endArrow=none;html=1;rounded=0;entryX=1;entryY=0.5;entryDx=0;entryDy=0;exitX=0;exitY=0.5;exitDx=0;exitDy=0;" edge="1" parent="1" target="cWptr_9K2KnEI4ltxLWX-16" source="cWptr_9K2KnEI4ltxLWX-1">
          <mxGeometry width="50" height="50" relative="1" as="geometry">
            <mxPoint x="730" y="570" as="sourcePoint" />
            <mxPoint x="780" y="770" as="targetPoint" />
          </mxGeometry>
        </mxCell>
        <mxCell id="cWptr_9K2KnEI4ltxLWX-16" value="&lt;u&gt;USER_ID&lt;/u&gt;" style="ellipse;whiteSpace=wrap;html=1;" vertex="1" parent="1">
          <mxGeometry x="510" y="550" width="120" height="40" as="geometry" />
        </mxCell>
        <mxCell id="cWptr_9K2KnEI4ltxLWX-17" value="" style="endArrow=none;html=1;rounded=0;" edge="1" parent="1" target="cWptr_9K2KnEI4ltxLWX-18">
          <mxGeometry width="50" height="50" relative="1" as="geometry">
            <mxPoint x="1250" y="540" as="sourcePoint" />
            <mxPoint x="1110" y="470" as="targetPoint" />
          </mxGeometry>
        </mxCell>
        <mxCell id="cWptr_9K2KnEI4ltxLWX-18" value="ORG_COUNTRY" style="ellipse;whiteSpace=wrap;html=1;" vertex="1" parent="1">
          <mxGeometry x="1040" y="390" width="120" height="40" as="geometry" />
        </mxCell>
        <mxCell id="cWptr_9K2KnEI4ltxLWX-19" value="" style="endArrow=none;html=1;rounded=0;exitX=0.5;exitY=0;exitDx=0;exitDy=0;" edge="1" parent="1" target="cWptr_9K2KnEI4ltxLWX-20" source="cWptr_9K2KnEI4ltxLWX-9">
          <mxGeometry width="50" height="50" relative="1" as="geometry">
            <mxPoint x="1250" y="530" as="sourcePoint" />
            <mxPoint x="1220" y="450" as="targetPoint" />
          </mxGeometry>
        </mxCell>
        <mxCell id="cWptr_9K2KnEI4ltxLWX-20" value="ORG_EMAIL" style="ellipse;whiteSpace=wrap;html=1;" vertex="1" parent="1">
          <mxGeometry x="1190" y="390" width="120" height="40" as="geometry" />
        </mxCell>
        <mxCell id="cWptr_9K2KnEI4ltxLWX-21" value="" style="endArrow=none;html=1;rounded=0;exitX=0.5;exitY=0;exitDx=0;exitDy=0;" edge="1" parent="1" target="cWptr_9K2KnEI4ltxLWX-22" source="cWptr_9K2KnEI4ltxLWX-9">
          <mxGeometry width="50" height="50" relative="1" as="geometry">
            <mxPoint x="850" y="550" as="sourcePoint" />
            <mxPoint x="990" y="480" as="targetPoint" />
          </mxGeometry>
        </mxCell>
        <mxCell id="cWptr_9K2KnEI4ltxLWX-22" value="ORG_HANDLE" style="ellipse;whiteSpace=wrap;html=1;" vertex="1" parent="1">
          <mxGeometry x="1350" y="390" width="120" height="40" as="geometry" />
        </mxCell>
        <mxCell id="cWptr_9K2KnEI4ltxLWX-25" value="" style="endArrow=none;html=1;rounded=0;entryX=0.5;entryY=0;entryDx=0;entryDy=0;exitX=0.5;exitY=1;exitDx=0;exitDy=0;" edge="1" parent="1" target="cWptr_9K2KnEI4ltxLWX-26" source="cWptr_9K2KnEI4ltxLWX-9">
          <mxGeometry width="50" height="50" relative="1" as="geometry">
            <mxPoint x="1320" y="710" as="sourcePoint" />
            <mxPoint x="1360" y="910" as="targetPoint" />
          </mxGeometry>
        </mxCell>
        <mxCell id="cWptr_9K2KnEI4ltxLWX-26" value="&lt;u&gt;ORG_ID&lt;/u&gt;" style="ellipse;whiteSpace=wrap;html=1;" vertex="1" parent="1">
          <mxGeometry x="1190" y="690" width="120" height="40" as="geometry" />
        </mxCell>
        <mxCell id="cWptr_9K2KnEI4ltxLWX-49" value="POST" style="rounded=0;whiteSpace=wrap;html=1;" vertex="1" parent="1">
          <mxGeometry x="860" y="910" width="120" height="60" as="geometry" />
        </mxCell>
        <mxCell id="cWptr_9K2KnEI4ltxLWX-50" value="" style="endArrow=none;html=1;rounded=0;entryX=1;entryY=0.5;entryDx=0;entryDy=0;exitX=0;exitY=0.5;exitDx=0;exitDy=0;" edge="1" parent="1" target="cWptr_9K2KnEI4ltxLWX-51">
          <mxGeometry width="50" height="50" relative="1" as="geometry">
            <mxPoint x="860" y="940" as="sourcePoint" />
            <mxPoint x="900" y="1140" as="targetPoint" />
          </mxGeometry>
        </mxCell>
        <mxCell id="cWptr_9K2KnEI4ltxLWX-51" value="&lt;u&gt;POST_ID&lt;/u&gt;" style="ellipse;whiteSpace=wrap;html=1;" vertex="1" parent="1">
          <mxGeometry x="630" y="920" width="120" height="40" as="geometry" />
        </mxCell>
      </root>
    </mxGraphModel>
  </diagram>
</mxfile>
